PathFileType	4	(X/Y/Z)	C:/Users/opensim2020/Desktop/walking_exp_matlab/subject06_walking18_straight_02.trc	
DataRate	CameraRate	NumFrames	NumMarkers	Units	OrigDataRate	OrigDataStartFrame	OrigNumFrames	
100.00	100.00	6	47	mm	100.00	2333	326	
Frame#	Time	LFHD			RFHD			LBHD			RBHD			C7			T10			CLAV			STRN			RBAK			LSHO			LUPA			LELB			LFRM			LWRA			LWRB			LFIN			RSHO			RUPA			RELB			RFRM			RWRA			RWRB			RFIN			LASI			RASI			LPSI			RPSI			LTHI			LKNE			LTIB			LANK			LHEE			LTOE			RTHI			RKNE			RTIB			RANK			RHEE			RTOE			*39			*40			*41			*42			*43			*44			*45			*46			
		X1	Y1	Z1	X2	Y2	Z2	X3	Y3	Z3	X4	Y4	Z4	X5	Y5	Z5	X6	Y6	Z6	X7	Y7	Z7	X8	Y8	Z8	X9	Y9	Z9	X10	Y10	Z10	X11	Y11	Z11	X12	Y12	Z12	X13	Y13	Z13	X14	Y14	Z14	X15	Y15	Z15	X16	Y16	Z16	X17	Y17	Z17	X18	Y18	Z18	X19	Y19	Z19	X20	Y20	Z20	X21	Y21	Z21	X22	Y22	Z22	X23	Y23	Z23	X24	Y24	Z24	X25	Y25	Z25	X26	Y26	Z26	X27	Y27	Z27	X28	Y28	Z28	X29	Y29	Z29	X30	Y30	Z30	X31	Y31	Z31	X32	Y32	Z32	X33	Y33	Z33	X34	Y34	Z34	X35	Y35	Z35	X36	Y36	Z36	X37	Y37	Z37	X38	Y38	Z38	X39	Y39	Z39	X40	Y40	Z40	X41	Y41	Z41	X42	Y42	Z42	X43	Y43	Z43	X44	Y44	Z44	X45	Y45	Z45	X46	Y46	Z46	X47	Y47	Z47	

82	0.810	-1007.18878	727.49170	1675.54431	-1138.92542	723.84674	1664.68127	-1010.99725	860.24506	1618.37878	-1140.53955	854.05957	1612.56274	-1067.14465	857.75323	1462.02112	-1077.01001	892.69641	1134.12976	-1065.31653	748.11835	1385.33142	-1058.37891	709.64594	1207.79761	-1150.96899	926.91107	1290.39966	-904.90643	805.69312	1416.00574	-833.23334	809.05811	1212.16943	-821.81421	810.76520	1099.79089	-796.68561	774.40619	954.43054	-832.80090	699.50873	847.20612	-799.95099	762.17493	835.60217	-794.83490	710.86304	760.30878	-1226.62354	788.13947	1418.13232	-1318.97412	817.56866	1221.03271	-1331.73022	801.56525	1100.69946	-1342.50989	757.91052	989.41107	-1296.93921	664.39771	875.62128	-1341.39709	712.76440	859.69171	-1335.36316	655.86542	797.39355	-955.78021	730.45923	972.99329	-1175.32837	718.32520	971.96204	-988.63428	886.11731	1002.18103	-1156.96411	870.49664	1004.29926	-899.69568	744.17505	660.84369	-926.99829	702.87152	504.56519	-920.53906	803.57996	274.79776	-948.81226	856.33752	108.38528	-996.47040	896.79803	97.90574	-941.30774	725.81177	50.05189	-1222.54285	777.98090	638.88281	-1198.77881	781.64075	512.08734	-1194.20691	835.92920	252.97685	-1147.33691	860.53931	67.53079	-1106.19849	903.35266	41.40450	-1132.44629	709.75006	38.61766	-1069.75696	827.25354	1711.76160																					 
83	0.820	-1006.08331	721.97675	1675.05298	-1137.87036	718.03003	1664.73584	-1010.52460	854.89801	1618.20288	-1140.53113	848.63745	1612.82520	-1067.15039	852.45679	1462.04712	-1077.45264	887.99298	1134.25854	-1065.15210	743.03137	1385.13013	-1058.50513	704.85809	1207.57349	-1151.56616	921.61749	1290.76392	-904.83759	800.85553	1415.65649	-833.15204	805.97803	1211.87170	-821.53021	808.78418	1099.56909	-796.15387	774.59564	953.72845	-831.16553	701.17419	845.31836	-798.73907	764.18243	834.79578	-793.08618	714.21594	758.73053	-1226.47253	782.56305	1418.44324	-1319.25452	811.45764	1221.44019	-1331.96997	795.56323	1101.17163	-1342.45703	751.56012	989.99933	-1296.06885	658.08228	876.51019	-1341.01782	706.01611	860.45563	-1334.35059	648.92755	798.34991	-956.15186	725.59949	973.24286	-1175.63806	714.28912	971.80457	-988.74066	881.53162	1002.21399	-1157.00439	866.21539	1004.20227	-899.47839	738.78162	661.33319	-927.05060	696.43225	505.33582	-920.02252	789.23022	271.88388	-948.23163	835.70911	103.61479	-995.79358	875.70160	91.76259	-941.23938	702.95044	49.54204	-1222.62842	775.06573	638.69031	-1198.85425	779.27014	511.85776	-1193.94214	835.18787	253.03423	-1147.18774	860.58105	67.61330	-1106.07043	903.48999	41.49024	-1132.58630	709.76794	38.55898	-1068.88684	821.59979	1711.72949																					 
84	0.830	-1004.90112	716.46973	1674.66223	-1136.79492	712.18854	1664.72949	-1010.06348	849.53894	1617.95227	-1140.15039	842.95087	1613.10547	-1067.07068	847.13422	1462.00537	-1077.85168	883.36578	1134.31848	-1064.92871	737.84375	1384.92603	-1058.57239	700.10248	1207.27942	-1152.08240	916.40802	1291.10083	-904.67682	796.05261	1415.32141	-833.02954	802.92365	1211.60095	-821.33527	806.90790	1099.37634	-794.83722	775.36700	953.16663	-829.69269	702.74487	843.64240	-797.57916	766.08008	834.10889	-791.50647	717.35132	757.27502	-1226.21240	776.79346	1418.57593	-1319.51880	805.35010	1221.78174	-1332.18359	789.59735	1101.52246	-1342.38245	745.33429	990.48511	-1295.17725	651.94983	877.22723	-1340.63440	699.26892	861.05798	-1333.27478	642.19946	799.06970	-956.48419	720.70367	973.32813	-1176.01379	710.08856	971.66687	-988.77661	876.87366	1002.15527	-1156.99976	861.86829	1004.00433	-899.36151	733.69720	661.47778	-927.04810	690.12708	505.97931	-919.51404	775.02692	269.15506	-947.71136	814.98376	99.15429	-995.01428	854.26074	85.79637	-941.22974	680.48181	49.17345	-1222.20618	772.01556	638.30621	-1198.91528	776.99115	511.57495	-1193.73291	834.35150	252.94765	-1147.14893	860.52185	67.68201	-1105.88794	903.54913	41.54179	-1132.69482	709.84796	38.50157	-1067.98853	815.86328	1711.66638																					 
85	0.840	-1003.87061	710.86414	1674.19177	-1135.65588	706.26196	1664.63171	-1009.69745	844.01483	1617.66516	-1139.27612	836.84393	1613.18298	-1066.97131	841.82385	1461.91199	-1078.10681	878.64880	1134.32056	-1064.63245	732.70599	1384.63269	-1058.57776	695.26935	1206.97119	-1152.45752	911.09723	1291.34473	-904.45441	791.16833	1414.89319	-832.86200	799.85376	1211.29285	-821.04315	804.87805	1099.19653	-794.15985	775.44159	952.78363	-828.30426	704.17755	841.99756	-796.43573	767.78131	833.41791	-789.99310	720.23279	755.91241	-1225.94629	771.07080	1418.62988	-1319.76807	799.37567	1222.04822	-1332.41736	783.67340	1101.82068	-1342.27673	739.14722	990.89740	-1294.16296	645.90942	877.81586	-1340.33948	692.82715	861.67822	-1332.15259	635.52631	799.66437	-956.75299	715.71368	973.40057	-1176.33704	705.70233	971.56677	-988.83905	872.06793	1001.98706	-1157.05408	857.51782	1003.72552	-899.23969	728.44214	661.81781	-926.87665	683.99512	506.37466	-919.04419	761.01251	266.59653	-947.30157	794.37006	95.21275	-994.76892	833.49609	80.95926	-941.22308	658.14124	48.99960	-1222.37476	768.95398	638.11584	-1199.06152	774.67767	511.29376	-1193.64941	833.53369	252.90350	-1147.00061	860.57056	67.72501	-1105.70569	903.64447	41.63955	-1132.76038	709.78021	38.40295	-1067.04626	810.13043	1711.51428																					 
86	0.850	-1002.67981	705.33618	1673.62048	-1134.48499	700.27661	1664.42297	-1008.99097	838.65558	1617.30017	-1138.77197	831.09973	1613.21729	-1066.80249	836.43359	1461.74854	-1078.26465	873.86499	1134.21423	-1064.30322	727.38544	1384.30164	-1058.56848	690.32294	1206.59021	-1152.70911	905.85052	1291.49097	-904.24121	786.32587	1414.45203	-832.65784	796.80786	1210.98560	-820.74969	802.84155	1099.00793	-793.58234	775.00208	952.30096	-826.96564	705.41168	840.46021	-795.41803	769.37299	832.91119	-788.53448	722.91644	754.64563	-1225.60925	765.19702	1418.49207	-1319.98901	793.49359	1222.21643	-1332.64514	777.77997	1101.95557	-1342.16333	733.07904	991.15765	-1293.16443	640.03302	878.23260	-1339.94995	686.34894	862.05756	-1331.00537	629.13177	800.07599	-957.03088	710.71771	973.34515	-1176.71948	701.28711	971.31696	-988.88556	867.16589	1001.72333	-1157.06433	852.96948	1003.36938	-898.92194	723.47870	661.78455	-926.94238	678.10596	506.54111	-918.64075	747.01166	264.17242	-947.16449	773.57788	91.38509	-994.31091	813.10681	76.44485	-941.30927	636.20801	48.99564	-1222.31482	765.72943	637.79315	-1199.15161	772.18958	511.01019	-1193.62366	832.57892	252.80638	-1146.89221	860.57819	67.78255	-1105.56030	903.68146	41.68966	-1132.96692	709.73883	38.38656	-1066.07629	804.31842	1711.26965																					 
87	0.860	-1001.43994	699.72687	1672.95813	-1133.32312	694.35638	1664.13342	-1008.55347	833.13153	1616.91614	-1138.27112	825.29749	1613.20251	-1066.58203	831.14008	1461.54004	-1078.34058	869.03278	1134.02246	-1063.91736	722.19971	1383.82532	-1058.48511	685.42389	1206.12463	-1152.87415	900.58759	1291.54736	-903.93726	781.47821	1413.98120	-832.38983	793.78503	1210.60779	-820.41406	800.76575	1098.76636	-792.54242	775.25745	951.75330	-825.75378	706.47803	839.00153	-794.37708	770.68701	832.31635	-787.35590	725.48254	753.47955	-1225.22156	759.48242	1418.32251	-1320.14600	787.64264	1222.26782	-1332.79199	771.92554	1101.97925	-1341.97791	727.05487	991.28290	-1291.79883	634.18787	878.37732	-1339.36743	680.10504	862.20575	-1329.95044	622.88342	800.36914	-957.32404	705.56329	973.15857	-1177.15857	696.87073	971.02612	-988.88403	862.18958	1001.37659	-1157.14099	848.39539	1002.94293	-898.47620	718.66986	661.51282	-926.47101	672.34302	506.56799	-918.25989	733.30920	261.83878	-946.90698	753.26031	88.17197	-994.22882	791.79382	72.13435	-941.56049	614.49994	49.38343	-1222.31934	762.41187	637.43420	-1199.28418	769.48511	510.61804	-1193.45508	831.49182	252.73184	-1146.82080	860.50531	67.78920	-1105.47900	903.68671	41.76344	-1133.04993	709.64197	38.13251	-1065.14014	798.49286	1710.97095																					 
